<?xml version="1.0" encoding="UTF-8" standalone="no"?><svg xmlns="http://www.w3.org/2000/svg" xmlns:xlink="http://www.w3.org/1999/xlink" contentStyleType="text/css" height="415px" preserveAspectRatio="none" style="width:617px;height:415px;background:#FFFFFF;" version="1.1" viewBox="0 0 617 415" width="617px" zoomAndPan="magnify"><defs/><g><rect height="29.0679" style="stroke:#00000000;stroke-width:1.0;fill:none;" width="152.4375" x="225.2813" y="5"/><text fill="#000000" font-family="sans-serif" font-size="14" font-weight="bold" lengthAdjust="spacing" textLength="142.4375" x="230.2813" y="24.9659">Connection Diagram</text><g id="cluster_##4"><path d="M318.6669,57.0752 C324.9857,50.0528 333.3338,49.4517 337.5282,59.4318 C341.6242,52.5583 347.7733,52.9468 351.8814,59.4188 C356.3559,50.2336 362.09,48.2314 369.6569,56.2176 C374.049,47.2368 382.2657,47.6003 386.4312,56.431 C392.5075,48.4446 399.3129,46.1088 405.6283,56.1767 C410.6426,48.2892 415.5325,48.5859 421.6207,54.9736 C427.6637,47.1719 435.1166,47.3533 439.6896,56.5374 C443.2263,48.9628 449.7917,49.0945 454.3773,55.4298 C460.1784,46.0679 466.0728,46.1826 471.9902,55.3191 C478.6498,48.584 486.7142,48.953 490.7606,58.3581 C493.4111,50.2194 499.5796,50.4619 504.6126,55.9332 C511.3259,47.4107 519.5769,47.951 524.0198,58.2715 C528.8878,50.9857 534.9856,49.5087 540.4629,57.6208 C550.7838,49.6296 557.6348,52.291 562.5,63.7895 C563.2592,63.067 564.0541,63.3673 564.397,64.2741 C575.5322,70.514 577.0024,78.0927 566.8567,86.6699 C577.2939,89.8796 577.3244,99.0063 570.4167,105.496 C578.4697,114.4299 578.3331,120.5952 566.2078,125.2242 C573.7758,138.0545 570.0052,147.8563 555.5,151.7895 C557.0443,150.7615 558.3477,151.4611 558.5325,153.252 C553.6543,160.9362 546.9143,161.7317 541.2775,154.1071 C537.3325,162.7945 530.0649,163.7419 524.8454,155.3321 C520.6507,163.4398 512.1314,164.8873 507.4038,155.875 C501.5463,164.1411 493.7046,164.4972 488.2189,155.4628 C481.9901,161.9725 476.6031,163.2955 471.674,154.0942 C467.6587,162.2257 460.4713,164.2962 454.2188,156.5544 C449.2391,164.6283 441.4034,164.3787 437.1002,155.8566 C431.3089,163.1294 426.932,161.1666 422.5173,154.4243 C418.0744,161.8021 409.2694,163.6265 404.8831,154.3643 C400.0207,162.6716 393.0839,161.3597 388.0508,154.5543 C382.2354,163.2325 374.7627,161.3777 370.2787,153.1543 C366.1413,161.0787 359.6112,160.9251 354.37,154.3668 C347.5702,161.967 341.7675,163.5883 335.3771,153.9167 C322.9753,164.2975 314.3865,157.618 310.5,144.7895 C312.1175,143.993 313.0078,144.6631 313.1597,146.3556 C302.2503,144.1073 300.2761,136.4866 305.8844,127.7718 C295.9738,124.6142 291.5763,114.8034 300.4198,106.7668 C291.7221,98.5404 293.6992,87.6979 305.9528,84.7327 C293.938,71.1681 302.9693,59.3845 317.5,56.7895 C317.9404,56.2923 318.4936,56.4816 318.6669,57.0752 " style="stroke:#181818;stroke-width:1.0;fill:none;"/></g><!--MD5=[8fc3522a43f8c7199df5e09e5bb0188e]
entity user--><g id="elem_user"><ellipse cx="349.5" cy="73.2895" fill="#F1F1F1" rx="8" ry="8" style="stroke:#181818;stroke-width:0.5;"/><path d="M349.5,81.2895 L349.5,108.2895 M336.5,89.2895 L362.5,89.2895 M349.5,108.2895 L336.5,123.2895 M349.5,108.2895 L362.5,123.2895 " fill="none" style="stroke:#181818;stroke-width:0.5;"/><text fill="#000000" font-family="sans-serif" font-size="14" lengthAdjust="spacing" textLength="61" x="319" y="139.7555">Api Client</text></g><!--MD5=[628b03cf5398f0dffbc66bc5b0769b85]
entity yumClient--><g id="elem_yumClient"><rect fill="#F1F1F1" height="49.0679" rx="2.5" ry="2.5" style="stroke:#181818;stroke-width:0.5;" width="139" x="415" y="79.7895"/><rect fill="#F1F1F1" height="10" style="stroke:#181818;stroke-width:0.5;" width="15" x="534" y="84.7895"/><rect fill="#F1F1F1" height="2" style="stroke:#181818;stroke-width:0.5;" width="4" x="532" y="86.7895"/><rect fill="#F1F1F1" height="2" style="stroke:#181818;stroke-width:0.5;" width="4" x="532" y="90.7895"/><text fill="#000000" font-family="sans-serif" font-size="14" lengthAdjust="spacing" textLength="99" x="430" y="114.7555">Yum/Dnf Client</text></g><!--MD5=[7bd96c763d4d4af0478433fc1369ba59]
entity postgreql--><g id="elem_postgreql"><path d="M223.5,235.2895 C223.5,225.2895 264.5,225.2895 264.5,225.2895 C264.5,225.2895 305.5,225.2895 305.5,235.2895 L305.5,263.3575 C305.5,273.3575 264.5,273.3575 264.5,273.3575 C264.5,273.3575 223.5,273.3575 223.5,263.3575 L223.5,235.2895 " fill="#F1F1F1" style="stroke:#181818;stroke-width:0.5;"/><path d="M223.5,235.2895 C223.5,245.2895 264.5,245.2895 264.5,245.2895 C264.5,245.2895 305.5,245.2895 305.5,235.2895 " fill="none" style="stroke:#181818;stroke-width:0.5;"/><text fill="#000000" font-family="sans-serif" font-size="14" lengthAdjust="spacing" textLength="62" x="233.5" y="264.2555">postgreql</text></g><!--MD5=[e29745d789d1cd237fb5892a53e7b9d1]
entity kafka--><g id="elem_kafka"><path d="M11,362.7895 L58,362.7895 C63,362.7895 63,377.3235 63,377.3235 C63,377.3235 63,391.8575 58,391.8575 L11,391.8575 C6,391.8575 6,377.3235 6,377.3235 C6,377.3235 6,362.7895 11,362.7895 " fill="#F1F1F1" style="stroke:#181818;stroke-width:0.5;"/><path d="M58,362.7895 C53,362.7895 53,377.3235 53,377.3235 C53,391.8575 58,391.8575 58,391.8575 " fill="none" style="stroke:#181818;stroke-width:0.5;"/><text fill="#000000" font-family="sans-serif" font-size="14" lengthAdjust="spacing" textLength="37" x="11" y="382.7555">Kafka</text></g><!--MD5=[9a58b2ec4c8050920207dfa421354b66]
entity yumRepo--><g id="elem_yumRepo"><path d="M289.1681,361.7042 C292.2627,355.8089 297.7131,355.1203 301.4513,361.0349 C305.1856,354.6442 310.5881,355.6348 313.5195,361.8062 C316.0219,357.4737 320.4639,357.0539 323.5258,361.1413 C326.3269,354.7643 331.8921,354.6753 335.0248,360.8373 C338.5877,356.6827 341.9748,355.8733 345.2572,361.1417 C348.501,355.2956 353.7747,355.2744 357.4514,360.6724 C360.8853,354.7902 365.2428,356.4452 368.35,361.0132 C372.0505,355.1926 376.9715,355.799 380.2381,361.4624 C383.7637,356.2322 387.1487,354.6342 391.713,360.376 C395.0659,355.007 399.5366,355.1948 402.5806,360.6852 C406.5009,355.3387 410.0992,355.6628 414.3314,360.3188 C417.6349,355.6285 421.2496,356.5186 424.0951,360.8164 C428.8659,355.9748 432.8028,355.2374 436.4084,362.0478 C440.0416,357.5348 445.0799,356.9238 448.0437,362.7977 C458.7775,364.185 461.1104,370.7491 455.6127,379.4945 C460.5818,387.4173 457.3353,394.0918 447.979,394.9298 C444.0111,401.4543 440.2411,402.3696 435.3232,395.8518 C433.3315,400.5385 429.5675,402.645 425.5222,398.0112 C421.6624,403.6773 418.1618,403.6452 414.1162,398.2018 C411.5962,404.2663 406.3192,403.9417 403.0287,398.9764 C400.1233,406.2744 395.6671,405.3989 390.6967,401.1894 C388.3453,406.9515 383.9088,406.9195 380.3287,402.4323 C377.0713,408.6055 372.0197,408.8725 367.8739,403.3808 C363.2337,407.3893 358.9455,406.44 357.0966,400.39 C353.2317,404.5964 349.1322,405.9424 345.9794,399.6368 C342.5766,405.8609 338.1225,405.8021 334.2108,400.1406 C330.2581,405.5916 326.3454,404.0955 323.3675,399.1262 C319.6503,404.7107 313.9814,403.3371 311.7167,397.6279 C307.2597,401.2768 303.5409,401.4632 301.5462,395.1212 C298.4148,400.1685 294.5233,400.2113 290.7155,395.9044 C282.3363,392.8336 278.6204,386.2585 286.1339,378.9045 C279.9185,372.0476 279.0307,365.6765 289.1681,361.7042 " fill="#F1F1F1" style="stroke:#181818;stroke-width:0.5;"/><text fill="#000000" font-family="sans-serif" font-size="14" lengthAdjust="spacing" textLength="143" x="296" y="382.7555">Third Party Yum Repo</text></g><!--MD5=[e2307af040e3f87d22824e7603ca28ec]
entity api--><g id="elem_api"><rect fill="#F1F1F1" height="49.0679" rx="2.5" ry="2.5" style="stroke:#181818;stroke-width:0.5;" width="94" x="94.5" y="224.7895"/><rect fill="#F1F1F1" height="10" style="stroke:#181818;stroke-width:0.5;" width="15" x="168.5" y="229.7895"/><rect fill="#F1F1F1" height="2" style="stroke:#181818;stroke-width:0.5;" width="4" x="166.5" y="231.7895"/><rect fill="#F1F1F1" height="2" style="stroke:#181818;stroke-width:0.5;" width="4" x="166.5" y="235.7895"/><text fill="#000000" font-family="sans-serif" font-size="14" lengthAdjust="spacing" textLength="54" x="109.5" y="259.7555">Http Api</text></g><!--MD5=[978fef6e92c729a05f9e22e967ac72bd]
entity taskWorker--><g id="elem_taskWorker"><rect fill="#F1F1F1" height="49.0679" rx="2.5" ry="2.5" style="stroke:#181818;stroke-width:0.5;" width="122" x="340.5" y="224.7895"/><rect fill="#F1F1F1" height="10" style="stroke:#181818;stroke-width:0.5;" width="15" x="442.5" y="229.7895"/><rect fill="#F1F1F1" height="2" style="stroke:#181818;stroke-width:0.5;" width="4" x="440.5" y="231.7895"/><rect fill="#F1F1F1" height="2" style="stroke:#181818;stroke-width:0.5;" width="4" x="440.5" y="235.7895"/><text fill="#000000" font-family="sans-serif" font-size="14" lengthAdjust="spacing" textLength="82" x="355.5" y="259.7555">Task Worker</text></g><!--MD5=[2d8880a4b2e36eee870df5cb524f0b85]
entity pulp--><g id="elem_pulp"><rect fill="#F1F1F1" height="49.0679" rx="2.5" ry="2.5" style="stroke:#181818;stroke-width:0.5;" width="113" x="498" y="224.7895"/><rect fill="#F1F1F1" height="10" style="stroke:#181818;stroke-width:0.5;" width="15" x="591" y="229.7895"/><rect fill="#F1F1F1" height="2" style="stroke:#181818;stroke-width:0.5;" width="4" x="589" y="231.7895"/><rect fill="#F1F1F1" height="2" style="stroke:#181818;stroke-width:0.5;" width="4" x="589" y="235.7895"/><text fill="#000000" font-family="sans-serif" font-size="14" lengthAdjust="spacing" textLength="73" x="513" y="259.7555">Pulp Server</text></g><!--MD5=[de5dc476b5cd49b5a92d294ad2af7d70]
entity redis--><g id="elem_redis"><path d="M103,362.7895 L190,362.7895 C195,362.7895 195,377.3235 195,377.3235 C195,377.3235 195,391.8575 190,391.8575 L103,391.8575 C98,391.8575 98,377.3235 98,377.3235 C98,377.3235 98,362.7895 103,362.7895 " fill="#F1F1F1" style="stroke:#181818;stroke-width:0.5;"/><path d="M190,362.7895 C185,362.7895 185,377.3235 185,377.3235 C185,391.8575 190,391.8575 190,391.8575 " fill="none" style="stroke:#181818;stroke-width:0.5;"/><text fill="#000000" font-family="sans-serif" font-size="14" lengthAdjust="spacing" textLength="77" x="103" y="382.7555">Redis cache</text></g><!--MD5=[171bbbeb97f5c35b5c0d3208ac28312a]
link user to api--><g id="link_user_api"><path d="M318.81,126.3895 C281.96,151.7295 220.12,194.2395 180.07,221.7695 " fill="none" id="user-to-api" style="stroke:#181818;stroke-width:1.0;"/><polygon fill="#181818" points="175.78,224.7195,185.4625,222.917,179.9002,221.8869,180.9303,216.3246,175.78,224.7195" style="stroke:#181818;stroke-width:1.0;"/><text fill="#000000" font-family="sans-serif" font-size="13" lengthAdjust="spacing" textLength="82" x="246.5" y="190.6866">Web Request</text></g><!--MD5=[c4a387bad60f30e82cfa26055029df4b]
link api to postgreql--><g id="link_api_postgreql"><path d="M188.59,249.2895 C198.43,249.2895 208.28,249.2895 218.13,249.2895 " fill="none" id="api-to-postgreql" style="stroke:#181818;stroke-width:1.0;"/><polygon fill="#181818" points="223.28,249.2895,214.28,245.2895,218.28,249.2895,214.28,253.2895,223.28,249.2895" style="stroke:#181818;stroke-width:1.0;"/></g><!--MD5=[a556e8e04acf8fb396b57414ff9d6864]
link api to yumRepo--><g id="link_api_yumRepo"><path d="M171.87,273.8295 C192.08,288.8895 219.58,308.2595 245.5,322.7895 C263.54,332.8995 283.86,342.4795 302.67,350.6595 " fill="none" id="api-to-yumRepo" style="stroke:#181818;stroke-width:1.0;"/><polygon fill="#181818" points="307.42,352.7095,300.7505,345.4626,302.8317,350.7227,297.5716,352.8039,307.42,352.7095" style="stroke:#181818;stroke-width:1.0;"/><text fill="#000000" font-family="sans-serif" font-size="13" lengthAdjust="spacing" textLength="106" x="246.5" y="318.6866">Validates repomd</text></g><!--MD5=[bc632f0c92945a6caeb57d18cf25e334]
link api to kafka--><g id="link_api_kafka"><path d="M94.22,273.6595 C81.55,281.7595 68.8,291.8595 59.5,303.7895 C47.14,319.6395 40.67,341.9995 37.43,357.6895 " fill="none" id="api-to-kafka" style="stroke:#181818;stroke-width:1.0;"/><polygon fill="#181818" points="36.45,362.7295,42.1012,354.6633,37.4086,357.8223,34.2496,353.1296,36.45,362.7295" style="stroke:#181818;stroke-width:1.0;"/><text fill="#000000" font-family="sans-serif" font-size="13" lengthAdjust="spacing" textLength="75" x="60.5" y="318.6866">Notifications</text></g><!--MD5=[8172e6ad22289659f75b122a2876e358]
link api to redis--><g id="link_api_redis"><path d="M142.44,273.9895 C143.4,298.1395 144.87,335.1295 145.75,357.3895 " fill="none" id="api-to-redis" style="stroke:#181818;stroke-width:1.0;"/><polygon fill="#181818" points="145.95,362.4395,149.5871,353.2869,145.7502,357.4435,141.5935,353.6066,145.95,362.4395" style="stroke:#181818;stroke-width:1.0;"/></g><!--MD5=[8272d912fd05abd881f1d450eef6d226]
reverse link postgreql to taskWorker--><g id="link_postgreql_taskWorker"><path d="M310.82,249.2895 C320.59,249.2895 330.36,249.2895 340.13,249.2895 " fill="none" id="postgreql-backto-taskWorker" style="stroke:#181818;stroke-width:1.0;"/><polygon fill="#181818" points="305.71,249.2895,314.71,253.2895,310.71,249.2895,314.71,245.2895,305.71,249.2895" style="stroke:#181818;stroke-width:1.0;"/></g><!--MD5=[673a0467f772e68af51432cfc4657192]
link taskWorker to yumRepo--><g id="link_taskWorker_yumRepo"><path d="M380.58,273.9295 C374.12,282.6995 367.83,293.1195 364.5,303.7895 C360.16,317.6995 360.35,333.8395 361.87,347.3495 " fill="none" id="taskWorker-to-yumRepo" style="stroke:#181818;stroke-width:1.0;"/><polygon fill="#181818" points="362.54,352.5795,365.3761,343.1479,361.911,347.6193,357.4396,344.1542,362.54,352.5795" style="stroke:#181818;stroke-width:1.0;"/><text fill="#000000" font-family="sans-serif" font-size="13" lengthAdjust="spacing" textLength="145" x="365.5" y="318.6866">Downloads Primary XML</text></g><!--MD5=[42b88fa7d0007a3fbd0601573f7e6a8d]
link taskWorker to pulp--><g id="link_taskWorker_pulp"><path d="M462.76,249.2895 C472.73,249.2895 482.7,249.2895 492.67,249.2895 " fill="none" id="taskWorker-to-pulp" style="stroke:#181818;stroke-width:1.0;"/><polygon fill="#181818" points="497.88,249.2895,488.88,245.2895,492.88,249.2895,488.88,253.2895,497.88,249.2895" style="stroke:#181818;stroke-width:1.0;"/></g><!--MD5=[ddd97834b1cf79b597324225982e86b1]
link yumClient to pulp--><g id="link_yumClient_pulp"><path d="M496.06,128.8995 C508.27,153.8495 527.52,193.1795 540.56,219.8195 " fill="none" id="yumClient-to-pulp" style="stroke:#181818;stroke-width:1.0;"/><polygon fill="#181818" points="542.92,224.6395,542.5606,214.7972,540.7239,220.1476,535.3736,218.3109,542.92,224.6395" style="stroke:#181818;stroke-width:1.0;"/></g><!--MD5=[3df90e48e3b2dd7b9f79c70fc9b326cb]
link pulp to yumRepo--><g id="link_pulp_yumRepo"><path d="M546.8,274.0895 C540.6,289.8395 530.43,309.8995 515.5,322.7895 C499.32,336.7595 479.21,347.1795 459.08,354.9295 " fill="none" id="pulp-to-yumRepo" style="stroke:#181818;stroke-width:1.0;"/><polygon fill="#181818" points="454.24,356.7395,464.072,357.3149,458.9199,354.9792,461.2555,349.8271,454.24,356.7395" style="stroke:#181818;stroke-width:1.0;"/><text fill="#000000" font-family="sans-serif" font-size="13" lengthAdjust="spacing" textLength="71" x="532.5" y="318.6866">Syncs Repo</text></g><!--MD5=[9f8397dd50820925e5e67ccedbb655e0]
@startuml
'https://plantuml.com/deployment-diagram
title Connection Diagram
database postgreql
queue Kafka as kafka
cloud {
  actor "Api Client" as user
  component "Yum/Dnf Client" as yumClient
}

cloud "Third Party Yum Repo" as yumRepo

component "Http Api" as api
component "Task Worker" as taskWorker
component "Pulp Server" as pulp
queue "Redis cache" as redis


user -down-> api : "Web Request"
api -right-> postgreql
api - -> yumRepo: "Validates repomd"
api - -> kafka: Notifications
api - -> redis
taskWorker -left-> postgreql
taskWorker - -> yumRepo: Downloads Primary XML
taskWorker -right-> pulp
yumClient -down-> pulp
pulp - -> yumRepo: Syncs Repo

@enduml

@startuml
title Connection Diagram
database postgreql
queue Kafka as kafka
cloud {
  actor "Api Client" as user
  component "Yum/Dnf Client" as yumClient
}

cloud "Third Party Yum Repo" as yumRepo

component "Http Api" as api
component "Task Worker" as taskWorker
component "Pulp Server" as pulp
queue "Redis cache" as redis


user -down-> api : "Web Request"
api -right-> postgreql
api - -> yumRepo: "Validates repomd"
api - -> kafka: Notifications
api - -> redis
taskWorker -left-> postgreql
taskWorker - -> yumRepo: Downloads Primary XML
taskWorker -right-> pulp
yumClient -down-> pulp
pulp - -> yumRepo: Syncs Repo

@enduml

PlantUML version 1.2022.5(Sat Apr 30 06:55:52 EDT 2022)
(LGPL source distribution)
Java Runtime: OpenJDK Runtime Environment
JVM: OpenJDK 64-Bit Server VM
Default Encoding: UTF-8
Language: en
Country: US
--></g></svg>